<svg width="93" height="30" viewBox="0 0 93 30" fill="none" xmlns="http://www.w3.org/2000/svg">
<path d="M6.294 30C5.942 30 5.64867 29.8753 5.414 29.626L1.014 25.226C0.764667 24.9913 0.64 24.698 0.64 24.346V1.224C0.64 0.857332 0.823333 0.673999 1.19 0.673999H7.416C7.78267 0.673999 7.966 0.857332 7.966 1.224V23.686C7.966 23.9793 8.11267 24.126 8.406 24.126H12.014V1.224C12.014 0.857332 12.1973 0.673999 12.564 0.673999H18.79C19.1567 0.673999 19.34 0.857332 19.34 1.224V29.45C19.34 29.8167 19.1567 30 18.79 30H6.294ZM24.4846 30C24.1179 30 23.9346 29.8167 23.9346 29.45V25.886C23.9346 25.5487 24.0446 25.3287 24.2646 25.226L28.7526 22.564V20.276L24.2646 17.856C24.0446 17.724 23.9346 17.4967 23.9346 17.174V10.156C23.9346 9.99467 23.9566 9.86267 24.0006 9.76C24.0592 9.65733 24.1399 9.56933 24.2426 9.496L28.9286 6.064C29.0899 5.94667 29.2219 5.87333 29.3246 5.844C29.4272 5.81467 29.5299 5.8 29.6326 5.8H34.9786C35.3452 5.8 35.5286 5.98333 35.5286 6.35V9.804C35.5286 10.0533 35.5066 10.222 35.4626 10.31C35.4332 10.398 35.3599 10.4713 35.2426 10.53L31.0846 12.774V15.326L35.5286 17.526C35.7779 17.6287 35.9026 17.8487 35.9026 18.186V24.94C35.9026 25.3067 35.7779 25.6 35.5286 25.82L30.8426 29.714C30.6079 29.9047 30.3146 30 29.9626 30H24.4846ZM50.371 30C50.2243 30 50.063 29.978 49.887 29.934C49.7257 29.89 49.5717 29.8533 49.425 29.824L45.509 28.856L41.021 27.36C40.581 27.2133 40.361 26.788 40.361 26.084V11.454C40.361 11.102 40.4857 10.8087 40.735 10.574L45.135 6.174C45.3843 5.92467 45.6777 5.8 46.015 5.8H53.055C53.3923 5.8 53.6857 5.92467 53.935 6.174L58.335 10.574C58.5843 10.8087 58.709 11.102 58.709 11.454V20.474H46.895L46.741 23.4L49.865 24.434L55.475 24.83C55.7243 24.874 55.849 25.0427 55.849 25.336V29.45C55.849 29.8167 55.6657 30 55.299 30H50.371ZM49.491 17.02H49.909C50.6277 17.02 51.1997 16.7487 51.625 16.206C52.065 15.6633 52.285 14.93 52.285 14.006V13.566C52.285 12.6567 52.065 11.9307 51.625 11.388C51.1997 10.8453 50.6277 10.574 49.909 10.574H49.469C48.765 10.574 48.2003 10.8453 47.775 11.388C47.3643 11.9307 47.159 12.6567 47.159 13.566V14.006C47.159 14.93 47.3643 15.6633 47.775 16.206C48.2003 16.7487 48.7723 17.02 49.491 17.02ZM63.8384 30C63.4718 30 63.2884 29.8167 63.2884 29.45V6.35C63.2884 5.98333 63.4718 5.8 63.8384 5.8H67.1824C67.4611 5.8 67.7031 5.92467 67.9084 6.174L70.0644 8.66L72.4624 6.064C72.6238 5.888 72.8291 5.8 73.0784 5.8H75.4544C75.8211 5.8 76.0044 5.98333 76.0044 6.35V11.08C76.0044 11.3147 75.9898 11.476 75.9604 11.564C75.9311 11.6373 75.8504 11.718 75.7184 11.806L70.2624 15.832V29.45C70.2624 29.8167 70.0791 30 69.7124 30H63.8384ZM80.8723 30C80.5643 30 80.3443 29.8753 80.2123 29.626L77.4623 24.984C77.3009 24.72 77.2716 24.4633 77.3743 24.214L84.8323 6.68L84.6343 7.406V6.13L84.8543 6.526H78.2323C77.8656 6.526 77.6823 6.34267 77.6823 5.976V1.224C77.6823 0.857332 77.8656 0.673999 78.2323 0.673999H88.9023C89.1956 0.673999 89.4156 0.783998 89.5623 1.004L92.7083 5.426C92.8843 5.646 92.9063 5.90267 92.7743 6.196L85.2283 23.884L85.4043 22.63V24.72L85.0523 24.126H91.9823C92.3489 24.126 92.5323 24.3093 92.5323 24.676V29.45C92.5323 29.8167 92.3489 30 91.9823 30H80.8723Z" fill="white"/>
</svg>
